<svg version="1.1" id="Layer_1"
    xmlns="http://www.w3.org/2000/svg"
    viewBox="0 0 886.5 600"
    xml:space="preserve"
    preserveAspectRatio="xMinYMin meet">
    <path fill="#ff6700" opacity="1.000000" stroke="none"
      d="
    M144.000000,417.999603 
      C296.776672,417.999603 449.053375,417.999603 601.665039,417.999603 
      C601.665039,447.297699 601.665039,476.328613 601.665039,505.583313 
      C401.774200,505.583313 202.081314,505.583313 2.115067,505.583313 
      C2.115067,476.412048 2.115067,447.501862 2.115067,417.999603 
      C49.306198,417.999603 96.403099,417.999603 144.000000,417.999603 
    z"/>
    <path fill="#ff6700" opacity="1.000000" stroke="none"
      d="
    M377.000061,97.580444 
      C546.432800,97.580238 715.365540,97.580238 884.727417,97.580238 
      C884.727417,126.695442 884.727417,155.566269 884.727417,184.797882 
      C685.162170,184.797882 485.481903,184.797882 285.401123,184.797882 
      C285.401123,156.106827 285.401123,127.232666 285.401123,97.580650 
      C315.710571,97.580650 346.105316,97.580650 377.000061,97.580444 
    z"/>
    <path fill="#ff6700" opacity="1.000000" stroke="none"
      d="
    M556.000122,259.580078 
      C618.606628,259.579865 680.713074,259.579865 743.118530,259.579865 
      C743.118530,288.938354 743.118530,317.693970 743.118530,346.803741 
      C543.338501,346.803741 343.602509,346.803741 143.511169,346.803741 
      C143.511169,317.958893 143.511169,289.074341 143.511169,259.580292 
      C280.964569,259.580292 418.232330,259.580292 556.000122,259.580078 
    z"/>
</svg>