<!-- https://formito.com/tools/favicon -->
<svg xmlns="http://www.w3.org/2000/svg" width="256" height="256" viewBox="0 0 100 100"><rect width="100" height="100" rx="20" fill="#ff6700"></rect><path d="M15.19 50.40L36.57 61.12Q36.64 61.56 36.64 61.92Q36.64 62.28 36.64 62.64L36.64 62.64Q36.64 64.15 35.82 65.19Q34.99 66.24 33.19 66.24L33.19 66.24Q32.40 66.24 31.53 65.88Q30.67 65.52 29.59 64.94L29.59 64.94L9.00 53.92Q8.49 53.20 8.20 52.30Q7.92 51.40 7.92 50.40L7.92 50.40Q7.92 48.74 8.42 47.80Q8.92 46.87 9.79 46.44L9.79 46.44L33.12 34.56Q34.99 35.13 35.74 36.07Q36.50 37.00 36.50 38.16L36.50 38.16Q36.50 39.74 35.64 40.64Q34.77 41.54 33.26 42.40L33.26 42.40L15.19 50.40ZM59.54 28.65L46.36 79.12Q45.14 79.34 43.99 79.34L43.99 79.34Q40.24 79.34 40.24 75.96L40.24 75.96Q40.24 74.80 40.64 73.47Q41.04 72.14 41.25 71.28L41.25 71.28L54.28 20.80Q54.93 20.66 55.51 20.66Q56.08 20.66 56.66 20.66L56.66 20.66Q58.39 20.66 59.43 21.42Q60.48 22.17 60.48 23.97L60.48 23.97Q60.48 25.12 60.15 26.31Q59.83 27.50 59.54 28.65L59.54 28.65ZM84.81 50.11L64.00 39.60Q63.93 39.16 63.90 38.80Q63.86 38.44 63.86 38.08L63.86 38.08Q63.86 36.64 64.72 35.56Q65.59 34.48 67.32 34.48L67.32 34.48Q68.11 34.48 69.01 34.81Q69.91 35.13 70.92 35.71L70.92 35.71L91.08 46.72Q92.08 48.09 92.08 50.25L92.08 50.25Q92.08 51.91 91.58 52.81Q91.08 53.71 90.28 54.21L90.28 54.21L67.53 66.09Q65.66 65.52 64.90 64.58Q64.15 63.64 64.15 62.42L64.15 62.42Q64.15 60.91 64.98 60.01Q65.80 59.11 67.39 58.32L67.39 58.32L84.81 50.11Z" fill="#fff"></path></svg>