<svg version="1.1" id="Layer_1" xmlns="http://www.w3.org/2000/svg" xmlns:xlink="http://www.w3.org/1999/xlink" x="0px" y="0px"
	 width="100%" viewBox="0 0 3713 620" enable-background="new 0 0 3713 620" xml:space="preserve">
<path fill="#0000" opacity="1.000000" stroke="none" 
	d="
M2787.000000,621.000000 
	C1858.000000,621.000000 929.500000,621.000000 1.000000,621.000000 
	C1.000000,414.333344 1.000000,207.666672 1.000000,1.000000 
	C1238.666626,1.000000 2476.333252,1.000000 3714.000000,1.000000 
	C3714.000000,207.666672 3714.000000,414.333344 3714.000000,621.000000 
	C3405.166748,621.000000 3096.333252,621.000000 2787.000000,621.000000 
M2629.000000,498.439575 
	C2629.000000,410.601440 2629.000000,322.763275 2629.000000,233.788040 
	C2630.759766,236.209091 2631.753418,237.519867 2632.688721,238.871307 
	C2693.481934,326.704865 2754.280029,414.535126 2815.012939,502.410431 
	C2816.770508,504.953857 2818.499268,506.155884 2821.795654,506.099762 
	C2835.623047,505.864258 2849.456787,506.000336 2863.288086,506.000336 
	C2874.071045,506.000336 2884.854004,506.000305 2895.803223,506.000305 
	C2895.803223,369.850159 2895.803223,234.125015 2895.803223,98.312866 
	C2869.724609,98.312866 2843.843506,98.312866 2817.487305,98.312866 
	C2817.487305,188.575439 2817.487305,278.525269 2817.487305,369.485168 
	C2815.972900,367.394745 2815.081299,366.209076 2814.236084,364.991211 
	C2753.358154,277.241364 2692.469482,189.498978 2631.676758,101.690033 
	C2629.735596,98.885811 2627.735596,97.899628 2624.385742,97.923416 
	C2603.222900,98.073723 2582.058838,97.999657 2560.895020,97.999657 
	C2557.776123,97.999657 2554.656982,97.999649 2551.420410,97.999649 
	C2551.420410,234.209396 2551.420410,369.924622 2551.420410,505.687866 
	C2577.396484,505.687866 2603.114258,505.687866 2629.000000,505.687866 
	C2629.000000,503.392029 2629.000000,501.407684 2629.000000,498.439575 
M3557.279297,385.218964 
	C3578.916992,424.309570 3600.578857,463.386963 3622.140381,502.519745 
	C3623.610840,505.188904 3625.257080,506.146484 3628.343750,506.087158 
	C3639.670898,505.869629 3651.004639,506.000916 3662.335938,506.000916 
	C3677.107178,506.000916 3691.878418,506.000916 3707.389648,506.000916 
	C3673.866699,447.370819 3640.674805,389.319672 3607.320801,330.984802 
	C3609.612305,329.747772 3611.509766,328.795959 3613.338135,327.725983 
	C3656.551270,302.437592 3679.391357,265.803467 3676.529785,214.699234 
	C3674.350098,175.769043 3658.289795,145.204132 3623.958252,125.085297 
	C3594.728760,107.956276 3562.996582,99.104172 3529.465088,98.397621 
	C3482.661621,97.411415 3435.823975,98.056877 3389.000977,98.030121 
	C3388.408447,98.029785 3387.815918,98.373123 3387.378418,98.508186 
	C3387.378418,234.374237 3387.378418,369.961609 3387.378418,505.733887 
	C3413.310547,505.733887 3439.026123,505.733887 3465.239014,505.733887 
	C3465.239014,454.093109 3465.239014,402.717651 3465.239014,351.421753 
	C3466.055176,351.287842 3466.374023,351.193451 3466.693848,351.188995 
	C3489.670898,350.869232 3512.647949,350.507416 3535.625977,350.371674 
	C3536.935547,350.363953 3538.746094,351.930664 3539.494141,353.238739 
	C3545.425293,363.614868 3551.155762,374.105927 3557.279297,385.218964 
M2213.000000,453.500000 
	C2213.000000,413.434143 2213.000000,373.368286 2213.000000,333.437378 
	C2266.882568,333.437378 2319.985840,333.437378 2373.659180,333.437378 
	C2373.659180,391.076477 2373.659180,448.448608 2373.659180,505.641022 
	C2399.798096,505.641022 2425.364014,505.641022 2450.659180,505.641022 
	C2450.659180,369.558289 2450.659180,233.834778 2450.659180,98.179825 
	C2424.862305,98.179825 2399.406250,98.179825 2373.367432,98.179825 
	C2373.367432,155.732651 2373.367432,213.108597 2373.367432,270.471924 
	C2319.573486,270.471924 2266.364258,270.471924 2212.842773,270.471924 
	C2212.842773,211.848236 2212.842773,153.584351 2212.842773,94.854149 
	C2186.838135,95.876511 2161.166016,96.885818 2135.397461,97.898911 
	C2135.397461,234.124710 2135.397461,369.856750 2135.397461,505.712646 
	C2161.349365,505.712646 2187.066162,505.712646 2213.000000,505.712646 
	C2213.000000,488.450714 2213.000000,471.475372 2213.000000,453.500000 
M2046.666260,500.060699 
	C2058.093750,498.480988 2069.521484,496.901245 2081.209229,495.285553 
	C2028.217651,362.411163 1975.524902,230.286041 1922.767822,97.999352 
	C1902.685913,97.999352 1882.692627,98.236725 1862.712280,97.834984 
	C1857.619507,97.732597 1855.720947,99.455940 1853.988525,103.913353 
	C1805.826660,227.829376 1757.515137,351.687256 1709.238037,475.558411 
	C1705.341187,485.557098 1701.511230,495.581848 1697.536499,505.889526 
	C1723.979736,505.889526 1749.791748,505.889526 1775.692627,505.889526 
	C1776.196289,504.598022 1776.687378,503.377319 1777.150269,502.145905 
	C1788.073364,473.090454 1799.102661,444.073914 1809.788208,414.931335 
	C1811.276611,410.871979 1813.205933,409.902405 1817.229492,409.913696 
	C1865.220093,410.048370 1913.211304,410.065857 1961.201538,409.884003 
	C1965.302612,409.868469 1966.815430,411.191650 1968.189575,414.867523 
	C1979.062378,443.951965 1990.195557,472.938995 2001.236084,501.960846 
	C2002.127075,504.303070 2002.592407,506.470520 2006.267090,505.876709 
	C2019.403564,503.753998 2032.603271,502.023651 2046.666260,500.060699 
M3232.215576,444.245148 
	C3239.452393,463.164490 3246.810059,482.039185 3253.826904,501.039703 
	C3255.285156,504.988190 3256.739502,506.282013 3261.225098,505.516510 
	C3274.176025,503.306335 3287.247803,501.807953 3300.269775,500.012054 
	C3311.423340,498.473846 3322.573730,496.910736 3334.210938,495.291046 
	C3281.268799,362.539124 3228.535645,230.311630 3175.815186,98.115814 
	C3153.553467,98.115814 3131.572266,98.115814 3109.369141,98.115814 
	C3056.441162,233.941650 3003.523193,369.741241 2950.426270,506.000549 
	C2976.170410,506.000549 3000.995605,505.935059 3025.819092,506.087036 
	C3028.779053,506.105164 3029.306641,504.555267 3030.091064,502.453766 
	C3041.064697,473.060272 3052.085693,443.684418 3063.107178,414.308716 
	C3063.953369,412.053589 3064.312988,409.884552 3067.927490,409.895935 
	C3117.254883,410.051575 3166.583252,410.020874 3215.911133,409.944000 
	C3218.511963,409.939941 3219.630371,410.768463 3220.518066,413.215027 
	C3224.199951,423.362823 3228.147461,433.414337 3232.215576,444.245148 
M1090.190552,225.287476 
	C1089.246582,224.124680 1088.265381,222.989914 1087.364136,221.794891 
	C1074.795166,205.127289 1074.812744,175.571609 1102.088013,163.839157 
	C1115.222412,158.189331 1128.876343,156.095688 1142.934570,156.237045 
	C1163.325806,156.442108 1182.744751,161.248947 1201.356323,169.516815 
	C1210.386475,173.528244 1219.502075,177.347046 1228.831299,181.361633 
	C1237.495605,160.372421 1246.013428,139.737762 1254.901489,118.206070 
	C1240.060913,112.474609 1225.933472,106.747147 1211.616455,101.540497 
	C1169.630005,86.271210 1126.883545,83.870903 1083.575317,95.056023 
	C1034.910645,107.624542 996.360474,148.873245 998.729187,203.403748 
	C1000.085632,234.632812 1011.350647,260.603699 1036.312378,279.975616 
	C1060.146606,298.472595 1085.618896,314.441376 1112.042603,328.983826 
	C1132.995117,340.515045 1153.794678,352.340302 1174.395386,364.487366 
	C1184.439453,370.409637 1192.978271,378.375244 1196.676514,389.859833 
	C1201.835693,405.880890 1197.114990,426.893494 1172.970581,437.010071 
	C1156.657837,443.845215 1139.398804,444.945007 1122.035156,444.631836 
	C1097.733276,444.193542 1074.856323,437.203369 1052.455566,428.470428 
	C1042.657837,424.650909 1033.039429,420.371643 1023.229614,416.254974 
	C1018.511169,433.216156 1013.842407,450.010559 1009.166626,466.803009 
	C1005.339783,480.546234 1005.332397,480.552521 1018.382996,487.145905 
	C1037.822876,496.967255 1058.720215,502.453735 1079.718872,507.560730 
	C1121.710449,517.773254 1163.316650,516.126526 1204.098755,501.892883 
	C1241.507568,488.836517 1278.351562,455.184906 1279.163452,402.603516 
	C1279.684570,368.844849 1268.133667,340.653168 1240.732056,320.104095 
	C1227.570190,310.233582 1214.148804,300.556061 1200.046875,292.126160 
	C1176.098877,277.810486 1151.303589,264.916046 1127.293335,250.699753 
	C1114.617188,243.194275 1102.846924,234.158752 1090.190552,225.287476 
M1468.223267,316.214447 
	C1440.380493,243.539154 1412.537598,170.863846 1384.556885,97.828568 
	C1358.847412,101.453590 1333.301514,105.055550 1307.403198,108.707184 
	C1315.536621,129.144974 1323.319824,148.737869 1331.129028,168.320435 
	C1375.466919,279.504089 1419.821777,390.680939 1464.095093,501.890289 
	C1465.295654,504.906006 1466.640259,506.150818 1470.147705,506.108795 
	C1489.144775,505.881287 1508.148315,505.845245 1527.144043,506.123932 
	C1531.255371,506.184265 1532.745483,504.782288 1534.160278,501.142487 
	C1579.868530,383.549225 1625.709961,266.007629 1671.527100,148.456619 
	C1678.022827,131.790375 1684.497192,115.115707 1691.093384,98.157150 
	C1664.527100,98.157150 1638.411987,98.157150 1612.174927,98.157150 
	C1574.960205,198.250671 1537.762329,298.298950 1500.205200,399.313660 
	C1489.477539,371.351593 1479.032227,344.125214 1468.223267,316.214447 
M143.500000,417.999603 
	C96.403099,417.999603 49.306198,417.999603 2.115067,417.999603 
	C2.115067,447.501862 2.115067,476.412048 2.115067,505.583313 
	C202.081314,505.583313 401.774200,505.583313 601.665039,505.583313 
	C601.665039,476.328613 601.665039,447.297699 601.665039,417.999603 
	C449.053375,417.999603 296.776672,417.999603 143.500000,417.999603 
M376.500061,97.580650 
	C346.105316,97.580650 315.710571,97.580650 285.401123,97.580650 
	C285.401123,127.232666 285.401123,156.106827 285.401123,184.797882 
	C485.481903,184.797882 685.162170,184.797882 884.727417,184.797882 
	C884.727417,155.566269 884.727417,126.695442 884.727417,97.580238 
	C715.365540,97.580238 546.432800,97.580238 376.500061,97.580650 
M555.500061,259.580292 
	C418.232330,259.580292 280.964569,259.580292 143.511169,259.580292 
	C143.511169,289.074341 143.511169,317.958893 143.511169,346.803741 
	C343.602509,346.803741 543.338501,346.803741 743.118530,346.803741 
	C743.118530,317.693970 743.118530,288.938354 743.118530,259.579865 
	C680.713074,259.579865 618.606628,259.579865 555.500061,259.580292 
z"/>
<path fill="#000000" opacity="1.000000" stroke="none" 
	d="
M2629.000000,498.931458 
	C2629.000000,501.407684 2629.000000,503.392029 2629.000000,505.687866 
	C2603.114258,505.687866 2577.396484,505.687866 2551.420410,505.687866 
	C2551.420410,369.924622 2551.420410,234.209396 2551.420410,97.999649 
	C2554.656982,97.999649 2557.776123,97.999657 2560.895020,97.999657 
	C2582.058838,97.999657 2603.222900,98.073723 2624.385742,97.923416 
	C2627.735596,97.899628 2629.735596,98.885811 2631.676758,101.690033 
	C2692.469482,189.498978 2753.358154,277.241364 2814.236084,364.991211 
	C2815.081299,366.209076 2815.972900,367.394745 2817.487305,369.485168 
	C2817.487305,278.525269 2817.487305,188.575439 2817.487305,98.312866 
	C2843.843506,98.312866 2869.724609,98.312866 2895.803223,98.312866 
	C2895.803223,234.125015 2895.803223,369.850159 2895.803223,506.000305 
	C2884.854004,506.000305 2874.071045,506.000336 2863.288086,506.000336 
	C2849.456787,506.000336 2835.623047,505.864258 2821.795654,506.099762 
	C2818.499268,506.155884 2816.770508,504.953857 2815.012939,502.410431 
	C2754.280029,414.535126 2693.481934,326.704865 2632.688721,238.871307 
	C2631.753418,237.519867 2630.759766,236.209091 2629.000000,233.788040 
	C2629.000000,322.763275 2629.000000,410.601440 2629.000000,498.931458 
z"/>
<path fill="#010101" opacity="1.000000" stroke="none" 
	d="
M3557.113525,384.890289 
	C3551.155762,374.105927 3545.425293,363.614868 3539.494141,353.238739 
	C3538.746094,351.930664 3536.935547,350.363953 3535.625977,350.371674 
	C3512.647949,350.507416 3489.670898,350.869232 3466.693848,351.188995 
	C3466.374023,351.193451 3466.055176,351.287842 3465.239014,351.421753 
	C3465.239014,402.717651 3465.239014,454.093109 3465.239014,505.733887 
	C3439.026123,505.733887 3413.310547,505.733887 3387.378418,505.733887 
	C3387.378418,369.961609 3387.378418,234.374237 3387.378418,98.508186 
	C3387.815918,98.373123 3388.408447,98.029785 3389.000977,98.030121 
	C3435.823975,98.056877 3482.661621,97.411415 3529.465088,98.397621 
	C3562.996582,99.104172 3594.728760,107.956276 3623.958252,125.085297 
	C3658.289795,145.204132 3674.350098,175.769043 3676.529785,214.699234 
	C3679.391357,265.803467 3656.551270,302.437592 3613.338135,327.725983 
	C3611.509766,328.795959 3609.612305,329.747772 3607.320801,330.984802 
	C3640.674805,389.319672 3673.866699,447.370819 3707.389648,506.000916 
	C3691.878418,506.000916 3677.107178,506.000916 3662.335938,506.000916 
	C3651.004639,506.000916 3639.670898,505.869629 3628.343750,506.087158 
	C3625.257080,506.146484 3623.610840,505.188904 3622.140381,502.519745 
	C3600.578857,463.386963 3578.916992,424.309570 3557.113525,384.890289 
M3552.232910,168.115082 
	C3547.705078,167.068054 3543.205078,165.269897 3538.644531,165.099487 
	C3514.389404,164.193222 3490.119141,163.693069 3465.853271,163.081940 
	C3465.610107,163.075836 3465.357178,163.471573 3465.305664,163.514786 
	C3465.305664,204.905670 3465.305664,246.127396 3465.305664,287.487793 
	C3482.925537,287.487793 3500.275146,288.149780 3517.544434,287.257141 
	C3529.227295,286.653229 3541.072266,284.873352 3552.351807,281.806641 
	C3568.481689,277.421234 3582.355469,269.102325 3589.491699,252.718826 
	C3594.426025,241.389557 3594.911621,229.456329 3593.812256,217.451813 
	C3591.745605,194.884842 3580.508301,178.916962 3559.048096,170.652008 
	C3557.033936,169.876404 3555.011719,169.121918 3552.232910,168.115082 
z"/>
<path fill="#000000" opacity="1.000000" stroke="none" 
	d="
M2213.000000,454.000000 
	C2213.000000,471.475372 2213.000000,488.450714 2213.000000,505.712646 
	C2187.066162,505.712646 2161.349365,505.712646 2135.397461,505.712646 
	C2135.397461,369.856750 2135.397461,234.124710 2135.397461,97.898911 
	C2161.166016,96.885818 2186.838135,95.876511 2212.842773,94.854149 
	C2212.842773,153.584351 2212.842773,211.848236 2212.842773,270.471924 
	C2266.364258,270.471924 2319.573486,270.471924 2373.367432,270.471924 
	C2373.367432,213.108597 2373.367432,155.732651 2373.367432,98.179825 
	C2399.406250,98.179825 2424.862305,98.179825 2450.659180,98.179825 
	C2450.659180,233.834778 2450.659180,369.558289 2450.659180,505.641022 
	C2425.364014,505.641022 2399.798096,505.641022 2373.659180,505.641022 
	C2373.659180,448.448608 2373.659180,391.076477 2373.659180,333.437378 
	C2319.985840,333.437378 2266.882568,333.437378 2213.000000,333.437378 
	C2213.000000,373.368286 2213.000000,413.434143 2213.000000,454.000000 
z"/>
<path fill="#010101" opacity="1.000000" stroke="none" 
	d="
M2046.222656,500.102814 
	C2032.603271,502.023651 2019.403564,503.753998 2006.267090,505.876709 
	C2002.592407,506.470520 2002.127075,504.303070 2001.236084,501.960846 
	C1990.195557,472.938995 1979.062378,443.951965 1968.189575,414.867523 
	C1966.815430,411.191650 1965.302612,409.868469 1961.201538,409.884003 
	C1913.211304,410.065857 1865.220093,410.048370 1817.229492,409.913696 
	C1813.205933,409.902405 1811.276611,410.871979 1809.788208,414.931335 
	C1799.102661,444.073914 1788.073364,473.090454 1777.150269,502.145905 
	C1776.687378,503.377319 1776.196289,504.598022 1775.692627,505.889526 
	C1749.791748,505.889526 1723.979736,505.889526 1697.536499,505.889526 
	C1701.511230,495.581848 1705.341187,485.557098 1709.238037,475.558411 
	C1757.515137,351.687256 1805.826660,227.829376 1853.988525,103.913353 
	C1855.720947,99.455940 1857.619507,97.732597 1862.712280,97.834984 
	C1882.692627,98.236725 1902.685913,97.999352 1922.767822,97.999352 
	C1975.524902,230.286041 2028.217651,362.411163 2081.209229,495.285553 
	C2069.521484,496.901245 2058.093750,498.480988 2046.222656,500.102814 
M1852.021484,300.534424 
	C1846.277954,315.866028 1840.534546,331.197632 1834.711792,346.740601 
	C1870.734375,346.740601 1906.236084,346.740601 1942.135864,346.740601 
	C1924.064941,299.695526 1906.132690,253.011444 1887.817017,205.329224 
	C1875.674072,237.550400 1863.948242,268.665100 1852.021484,300.534424 
z"/>
<path fill="#010101" opacity="1.000000" stroke="none" 
	d="
M3232.106445,443.873169 
	C3228.147461,433.414337 3224.199951,423.362823 3220.518066,413.215027 
	C3219.630371,410.768463 3218.511963,409.939941 3215.911133,409.944000 
	C3166.583252,410.020874 3117.254883,410.051575 3067.927490,409.895935 
	C3064.312988,409.884552 3063.953369,412.053589 3063.107178,414.308716 
	C3052.085693,443.684418 3041.064697,473.060272 3030.091064,502.453766 
	C3029.306641,504.555267 3028.779053,506.105164 3025.819092,506.087036 
	C3000.995605,505.935059 2976.170410,506.000549 2950.426270,506.000549 
	C3003.523193,369.741241 3056.441162,233.941650 3109.369141,98.115814 
	C3131.572266,98.115814 3153.553467,98.115814 3175.815186,98.115814 
	C3228.535645,230.311630 3281.268799,362.539124 3334.210938,495.291046 
	C3322.573730,496.910736 3311.423340,498.473846 3300.269775,500.012054 
	C3287.247803,501.807953 3274.176025,503.306335 3261.225098,505.516510 
	C3256.739502,506.282013 3255.285156,504.988190 3253.826904,501.039703 
	C3246.810059,482.039185 3239.452393,463.164490 3232.106445,443.873169 
M3139.500000,347.000946 
	C3157.910645,347.000946 3176.321533,347.000946 3195.236084,347.000946 
	C3177.068848,299.705719 3159.126465,252.996170 3140.788818,205.257248 
	C3122.838135,253.084473 3105.321289,299.755402 3087.588867,347.000946 
	C3104.965820,347.000946 3121.732910,347.000946 3139.500000,347.000946 
z"/>
<path fill="#010101" opacity="1.000000" stroke="none" 
	d="
M1090.429199,225.550751 
	C1102.846924,234.158752 1114.617188,243.194275 1127.293335,250.699753 
	C1151.303589,264.916046 1176.098877,277.810486 1200.046875,292.126160 
	C1214.148804,300.556061 1227.570190,310.233582 1240.732056,320.104095 
	C1268.133667,340.653168 1279.684570,368.844849 1279.163452,402.603516 
	C1278.351562,455.184906 1241.507568,488.836517 1204.098755,501.892883 
	C1163.316650,516.126526 1121.710449,517.773254 1079.718872,507.560730 
	C1058.720215,502.453735 1037.822876,496.967255 1018.382996,487.145905 
	C1005.332397,480.552521 1005.339783,480.546234 1009.166626,466.803009 
	C1013.842407,450.010559 1018.511169,433.216156 1023.229614,416.254974 
	C1033.039429,420.371643 1042.657837,424.650909 1052.455566,428.470428 
	C1074.856323,437.203369 1097.733276,444.193542 1122.035156,444.631836 
	C1139.398804,444.945007 1156.657837,443.845215 1172.970581,437.010071 
	C1197.114990,426.893494 1201.835693,405.880890 1196.676514,389.859833 
	C1192.978271,378.375244 1184.439453,370.409637 1174.395386,364.487366 
	C1153.794678,352.340302 1132.995117,340.515045 1112.042603,328.983826 
	C1085.618896,314.441376 1060.146606,298.472595 1036.312378,279.975616 
	C1011.350647,260.603699 1000.085632,234.632812 998.729187,203.403748 
	C996.360474,148.873245 1034.910645,107.624542 1083.575317,95.056023 
	C1126.883545,83.870903 1169.630005,86.271210 1211.616455,101.540497 
	C1225.933472,106.747147 1240.060913,112.474609 1254.901489,118.206070 
	C1246.013428,139.737762 1237.495605,160.372421 1228.831299,181.361633 
	C1219.502075,177.347046 1210.386475,173.528244 1201.356323,169.516815 
	C1182.744751,161.248947 1163.325806,156.442108 1142.934570,156.237045 
	C1128.876343,156.095688 1115.222412,158.189331 1102.088013,163.839157 
	C1074.812744,175.571609 1074.795166,205.127289 1087.364136,221.794891 
	C1088.265381,222.989914 1089.246582,224.124680 1090.429199,225.550751 
z"/>
<path fill="#010101" opacity="1.000000" stroke="none" 
	d="
M1468.405029,316.556641 
	C1479.032227,344.125214 1489.477539,371.351593 1500.205200,399.313660 
	C1537.762329,298.298950 1574.960205,198.250671 1612.174927,98.157150 
	C1638.411987,98.157150 1664.527100,98.157150 1691.093384,98.157150 
	C1684.497192,115.115707 1678.022827,131.790375 1671.527100,148.456619 
	C1625.709961,266.007629 1579.868530,383.549225 1534.160278,501.142487 
	C1532.745483,504.782288 1531.255371,506.184265 1527.144043,506.123932 
	C1508.148315,505.845245 1489.144775,505.881287 1470.147705,506.108795 
	C1466.640259,506.150818 1465.295654,504.906006 1464.095093,501.890289 
	C1419.821777,390.680939 1375.466919,279.504089 1331.129028,168.320435 
	C1323.319824,148.737869 1315.536621,129.144974 1307.403198,108.707184 
	C1333.301514,105.055550 1358.847412,101.453590 1384.556885,97.828568 
	C1412.537598,170.863846 1440.380493,243.539154 1468.405029,316.556641 
z"/>
<path fill="#ff6700" opacity="1.000000" stroke="none" 
	d="
M144.000000,417.999603 
	C296.776672,417.999603 449.053375,417.999603 601.665039,417.999603 
	C601.665039,447.297699 601.665039,476.328613 601.665039,505.583313 
	C401.774200,505.583313 202.081314,505.583313 2.115067,505.583313 
	C2.115067,476.412048 2.115067,447.501862 2.115067,417.999603 
	C49.306198,417.999603 96.403099,417.999603 144.000000,417.999603 
z"/>
<path fill="#ff6700" opacity="1.000000" stroke="none" 
	d="
M377.000061,97.580444 
	C546.432800,97.580238 715.365540,97.580238 884.727417,97.580238 
	C884.727417,126.695442 884.727417,155.566269 884.727417,184.797882 
	C685.162170,184.797882 485.481903,184.797882 285.401123,184.797882 
	C285.401123,156.106827 285.401123,127.232666 285.401123,97.580650 
	C315.710571,97.580650 346.105316,97.580650 377.000061,97.580444 
z"/>
<path fill="#ff6700" opacity="1.000000" stroke="none" 
	d="
M556.000122,259.580078 
	C618.606628,259.579865 680.713074,259.579865 743.118530,259.579865 
	C743.118530,288.938354 743.118530,317.693970 743.118530,346.803741 
	C543.338501,346.803741 343.602509,346.803741 143.511169,346.803741 
	C143.511169,317.958893 143.511169,289.074341 143.511169,259.580292 
	C280.964569,259.580292 418.232330,259.580292 556.000122,259.580078 
z"/>
</svg>